<svg width="129" height="32" viewBox="0 0 129 32" fill="none" xmlns="http://www.w3.org/2000/svg">
<path fill-rule="evenodd" clip-rule="evenodd" d="M47.2141 23.3086H36.5988V23.5854H27.8633V31.6235H44.3915C47.0438 31.6235 47.2202 28.8735 47.2202 26.8065V23.3086H47.2141ZM78.2752 23.3086H50.274L48.4186 31.6235H59.2529L60.9562 23.9976H67.6174L69.3024 31.6235H80.1185L78.2752 23.3086ZM92.8142 23.3086H82.205V31.6235H92.8142V23.3086ZM105.747 23.3086H95.1258V31.6235H105.747V23.3086ZM122.288 23.3086H107.39L113.668 31.6235H122.288V23.3086Z" fill="#9F5316"/>
<path fill-rule="evenodd" clip-rule="evenodd" d="M47.2184 15.3809H36.6031V23.5839H36.0312V23.7901H47.2184V15.3809ZM76.5275 15.3809H65.7297L65.8879 16.117H62.7307L62.8949 15.375H52.0485L50.1748 23.7783H78.389L76.5275 15.375V15.3809ZM92.8184 15.3809H82.2092V23.7842H92.8184V15.3809ZM122.292 15.3809H95.124V23.7783H105.745V21.9233H106.354L107.753 23.7783H122.286V15.3809H122.292Z" fill="#82D0F5"/>
<path fill-rule="evenodd" clip-rule="evenodd" d="M47.2207 7.67969H36.6055V16.3303H47.2207V7.67969ZM74.8205 7.67969H53.7663L51.8379 16.3303H76.7367L74.8205 7.67969ZM92.8208 7.67969H82.2116V16.3303H92.8208V7.67969ZM62.7331 16.1242H65.8903L64.3269 8.92222L62.7331 16.1242ZM122.294 7.67969H111.685V10.6594H110.992L108.771 7.67969H95.1264V16.3303H122.294V7.67969Z" fill="#76B828"/>
<path fill-rule="evenodd" clip-rule="evenodd" d="M111.678 8.87346H122.288V0.964844H111.678V8.87346ZM95.1198 8.87346H109.653L103.764 0.964844H95.1137V8.87346H95.1198ZM82.1989 8.87346H92.8081V0.964844H82.1989V8.87346ZM53.4921 8.87346H75.0754L73.3235 0.964844H55.2562L53.4921 8.87346ZM36.5928 8.87346H47.2081V0.964844H36.5928V8.87346Z" fill="#FFEF2A"/>
<path d="M65.8895 16.3321H62.4707L62.5255 16.0848L64.1193 8.88281H64.5268L66.0902 16.0907L66.145 16.3321H65.8895ZM62.9878 15.9258H65.6279L64.32 9.90157L62.9878 15.9258Z" fill="#1A1A18"/>
<path d="M60.9513 23.7966H67.7828L67.8193 23.9556L69.4678 31.4226H79.852L73.1604 1.17195H55.4277L48.6753 31.4226H59.0776L60.7445 23.9556L60.781 23.7966H60.9513ZM67.4482 24.2029H61.1216L59.4548 31.6699L59.4183 31.8289H48.4198H48.1582L48.213 31.5815L55.0566 0.924622L55.0931 0.765625H73.501L73.5375 0.924622L80.3265 31.5815L80.3812 31.8289H69.1394L69.1029 31.6699L67.4543 24.2029H67.4482Z" fill="#1A1A18"/>
<path d="M94.9114 31.6228V0.765625H103.878L103.939 0.848068L111.093 10.4585H111.47V0.765625H122.493V31.8289H113.557L113.496 31.7464L106.244 22.1419H105.946V31.6287V31.8348H94.9053V31.6287L94.9114 31.6228ZM95.3311 1.16606V31.4167H105.533V21.7296H106.354H106.463L106.524 21.8121L113.776 31.4167H122.079V1.17195H111.89V10.8649H110.989H110.88L110.819 10.7824L103.665 1.17195H95.3311V1.16606Z" fill="#1A1A18"/>
<path d="M93.0221 0.965843V31.8289H81.9932V0.765625H93.0221V0.965843ZM92.6024 31.4226V1.17195H82.4129V31.4226H92.6024Z" fill="#1A1A18"/>
<path d="M36.5889 0.765625H47.4171V26.8116C47.4171 27.8657 47.3684 29.0906 46.9852 30.0681C46.5776 31.0869 45.8172 31.8289 44.3815 31.8289H27.6465V23.3844H36.382V0.765625H36.5889ZM46.9973 1.17195H36.7957V23.7907H28.0601V31.4226H44.3754C45.5921 31.4226 46.243 30.7925 46.5897 29.9209C46.9547 29.0082 46.9973 27.8245 46.9973 26.8116V1.17195Z" fill="#1A1A18"/>
<path fill-rule="evenodd" clip-rule="evenodd" d="M1.94979 15.6067L11.1781 1.27344L20.4125 15.6067L20.2178 15.3005C21.3919 16.9788 22.0671 19.0045 22.0671 21.1893C22.0671 27.0074 17.1944 31.7243 11.1781 31.7243C5.16175 31.7243 0.289062 27.0074 0.289062 21.1893C0.289062 18.9869 0.988637 16.9434 2.18096 15.2534L1.94371 15.6067H1.94979Z" fill="white"/>
<path fill-rule="evenodd" clip-rule="evenodd" d="M11.4187 11.8086C11.4187 11.8086 12.173 12.0441 13.0308 12.8509C13.56 13.4633 13.8885 14.0993 13.9007 14.9414C14.0893 15.2476 14.2535 15.4066 14.3813 15.6127C14.3752 15.1357 14.3204 14.8001 14.5029 14.329C14.7098 13.7931 15.0139 13.4869 15.4397 13.1807C15.6283 13.5811 15.8169 13.9639 15.7561 14.5115C15.6466 15.4596 15.0261 16.0662 14.874 16.2016C14.7463 16.3253 15.3728 16.8729 15.6892 17.4383C15.7804 16.4254 16.2671 15.7011 17.0031 15.3831C17.283 15.9425 17.2586 16.0956 17.2039 16.5549C17.1552 17.0143 17.0031 17.2616 16.7476 17.6561C16.5895 17.8976 16.4861 18.0271 16.2732 18.2332C16.2732 18.2332 16.7963 18.9929 17.0883 19.4699C17.1491 18.8339 17.5202 17.8446 18.4875 17.4383C18.6152 17.7563 18.7369 18.3333 18.5787 18.7809C18.2806 19.6407 17.7027 20.0646 17.5506 20.2236C17.7635 20.8243 18.0799 21.7901 18.0799 21.7901C18.2624 21.319 18.4327 21.1305 18.8768 20.7536C19.0654 20.5887 19.7954 20.3355 19.7954 20.3355C19.7954 20.3355 19.8319 20.7949 19.771 21.0834C19.6554 21.6193 19.4182 21.8961 19.0167 22.2788C18.7673 22.5203 18.2806 22.6675 18.2867 22.7911C18.2989 23.3035 18.3232 23.7805 18.2989 24.2692C18.7916 23.7451 18.8038 23.6745 19.2418 23.4742C19.6859 23.2681 20.4888 23.1563 20.4767 23.2681C20.4584 23.4212 20.3124 23.8688 20.1969 24.0396C19.9353 24.4282 19.8805 24.5283 19.3513 24.8699C18.67 25.3115 18.2563 25.2232 18.1894 25.3469C17.6723 26.7425 17.2221 27.7613 16.0055 28.8801C14.1014 30.6291 11.9723 31.2415 10.3298 31.4123L8.74816 31.4653C8.58392 31.43 8.41967 31.3888 8.2615 31.3475L7.68359 30.9412C11.6438 31.1591 15.823 30.0226 17.6601 25.4058C16.6016 25.0171 15.7926 24.6756 15.3667 23.5979C15.3667 23.5979 16.0602 23.539 16.48 23.645C17.0396 23.7863 17.3316 24.0219 17.7575 24.3811C17.8061 23.7922 17.7635 23.5037 17.727 22.8913C16.5651 23.0503 15.4397 22.5968 15.02 21.6899C15.3363 21.4721 15.6648 21.4838 16.0542 21.4838C16.6564 21.4838 17.0944 21.6311 17.575 21.9726C17.575 21.8902 17.283 20.9951 17.0944 20.4827C16.7902 20.6182 16.4191 20.6476 16.0785 20.6417C15.3363 20.63 14.4786 20.3002 14.1866 19.7467C14.5029 19.517 15.1417 19.2814 15.75 19.4287C16.188 19.5347 16.2184 19.4817 16.6686 19.7231C16.7841 19.782 16.042 18.6337 15.8899 18.4629C15.7865 18.351 15.4762 18.7691 14.7158 18.7573C13.9858 18.7456 13.268 18.5159 12.9152 18.0507C13.2315 17.6856 13.633 17.5737 14.1136 17.4854C14.5698 17.4147 14.8558 17.45 15.2998 17.5207C15.0504 17.0673 14.7828 16.7316 14.5698 16.4195C14.5212 16.3488 13.8155 16.814 13.2863 16.7728C12.6475 16.7257 11.948 16.4784 11.51 15.9896C11.9115 15.5833 12.4954 15.5009 12.9334 15.4891C13.4627 15.4773 13.6999 15.6716 14.1805 15.7835C13.9372 15.4891 13.8642 15.3301 13.6756 15.1122C13.2741 14.9532 12.4894 14.5763 12.3008 14.3172C11.875 13.7401 11.6925 13.587 11.5586 13.0217C11.443 12.5565 11.3822 12.2915 11.4065 11.8263" fill="#00963F"/>
<path d="M11.181 1.80217L2.42722 15.3934V15.4052L2.41505 15.4229L2.23255 15.6997L2.19605 15.7527C1.71548 16.4946 1.32615 17.3014 1.05849 18.1612C0.754324 19.1151 0.590075 20.1339 0.590075 21.188C0.590075 24.0205 1.77631 26.5821 3.69254 28.4371C5.60876 30.292 8.26106 31.4403 11.1871 31.4403C14.1132 31.4403 16.7655 30.292 18.6817 28.4371C20.5979 26.5821 21.7841 24.0205 21.7841 21.188C21.7841 20.1398 21.626 19.1328 21.3279 18.1847C21.0541 17.3191 20.6709 16.5005 20.1842 15.7527L20.1356 15.6761L20.0017 15.4759L19.9896 15.4641V15.4582L11.181 1.80217ZM1.87364 15.205L10.9316 1.12496L11.1749 0.742188L11.4183 1.12496L20.4702 15.1697C21.0724 16.0353 21.5469 16.9952 21.8632 18.0198C22.1795 19.0209 22.3499 20.0868 22.3499 21.188C22.3499 24.1736 21.0967 26.8765 19.0771 28.8316C17.0514 30.7926 14.2592 31.9998 11.1749 31.9998C8.09073 31.9998 5.29243 30.7867 3.27279 28.8316C1.25315 26.8765 0 24.1677 0 21.188C0 20.075 0.176414 19.0033 0.492743 17.9963C0.809073 16.9952 1.27748 16.0589 1.86148 15.205H1.87364Z" fill="#009EE3"/>
<path d="M126.243 1.23075V1.84318H126.669C126.894 1.84318 127.01 1.74308 127.016 1.53697C127.022 1.33675 126.906 1.23075 126.669 1.23075H126.243ZM125.915 0.912759H126.657C127.119 0.930425 127.35 1.13653 127.35 1.53108C127.35 1.76074 127.259 1.93152 127.101 2.03163L126.985 2.0964L127.381 3.03272H126.961L126.614 2.16707H126.249V3.03272H125.921V0.912759H125.915ZM124.832 2.02574C124.832 2.32017 124.911 2.60872 125.069 2.8855C125.221 3.15049 125.434 3.36249 125.714 3.51559C125.994 3.6687 126.292 3.74526 126.608 3.74526C127.101 3.74526 127.514 3.58037 127.861 3.23882C128.208 2.89727 128.378 2.49095 128.384 2.01985C128.384 1.54875 128.208 1.14242 127.861 0.81265C127.514 0.47699 127.101 0.312105 126.608 0.306216C126.115 0.306216 125.702 0.47699 125.355 0.806761C125.008 1.13653 124.838 1.54286 124.832 2.01985V2.02574ZM124.521 2.02574C124.521 1.6783 124.613 1.34264 124.801 1.01287C124.978 0.700763 125.227 0.453435 125.556 0.270883C125.884 0.0883315 126.231 0 126.602 0C126.973 0 127.326 0.0883315 127.648 0.270883C127.971 0.453435 128.226 0.700763 128.415 1.01287C128.603 1.32497 128.695 1.66652 128.695 2.02574C128.695 2.38495 128.603 2.7265 128.415 3.0386C128.226 3.35071 127.977 3.59804 127.654 3.78059C127.332 3.96314 126.985 4.04558 126.614 4.04558C126.036 4.04558 125.543 3.85125 125.136 3.4626C124.728 3.07394 124.521 2.59106 124.521 2.01985V2.02574Z" fill="#1A1A18"/>
</svg>
